<?xml version="1.0" encoding="UTF-8"?>
<svg xmlns="http://www.w3.org/2000/svg" xmlns:xlink="http://www.w3.org/1999/xlink" version="1.1" id="Ebene_1" x="0px" y="0px" viewBox="0 0 400 400" style="enable-background:new 0 0 400 400;" xml:space="preserve">
<style type="text/css">
	.st0{fill:#CDCDCD;}
</style>
<g>
	<path class="st0" d="M292.1,279.4l-15-42.8c-5.7-16.4-21.2-27.4-38.6-27.4h-77.1c-2.5,0-4.9,0.2-7.3,0.7l4.4-7.7l-14.3-25.5   c-4.4,13-16.5,22.4-30.7,23l11.8,21l7.3,0.3c-4.3,4.3-7.7,9.5-9.8,15.5l-15,42.8C98,283.5,91,293.3,91,304.6v61.3v20.4   c0,7.5,6.1,13.6,13.6,13.6h13.6c7.5,0,13.6-6.1,13.6-13.6v-20.4h136.2v20.4c0,7.5,6.1,13.6,13.6,13.6h13.6   c7.5,0,13.6-6.1,13.6-13.6v-20.4v-61.3C309,293.3,302,283.5,292.1,279.4z M137.5,277.4l11.1-31.8c1-2.7,2.7-5,5-6.6l4.5,7.9   l6.4-3.6l-3.8-6.8c0.3,0,0.6,0,0.8,0h77.1c5.8,0,10.9,3.7,12.9,9.1l11.1,31.8L137.5,277.4L137.5,277.4z"></path>
	<path class="st0" d="M211.5,137.5c1.4,0.1,2.8,0.2,4.1,0.2c21.6,0,40-16.4,42.2-38.3c2.3-23.3-14.8-44-38.1-46.3   c-1.4-0.1-2.8-0.2-4.1-0.2c-21.6,0-40,16.4-42.2,38.3C171.1,114.6,188.1,135.3,211.5,137.5z"></path>
	<path class="st0" d="M184.9,48.9c8.9-5.9,19.4-9.3,30.6-9.3c1.8,0,3.6,0.1,5.4,0.3c21.6,2.1,39.1,16.3,46.5,35.2L285.5,0H185.5   l-2.2,0.5C183.3,0.5,185,48.6,184.9,48.9z"></path>
	<path class="st0" d="M126.5,135.1c12.7,6,20,18.8,19.6,32l35.7-27.5c-17.3-13.2-25.4-35.5-20.5-56.8l-62.8,52   c4.3-1.9,9-2.9,13.8-2.9C117,131.9,121.9,133,126.5,135.1z"></path>
	<path class="st0" d="M112.2,186.5c4.1,0,8.3-1.2,12-3.8c9.3-6.6,11.5-19.5,4.9-28.8c-4-5.7-10.4-8.7-16.8-8.7   c-4.1,0-8.3,1.2-12,3.8c-9.3,6.6-11.5,19.5-4.9,28.8C99.4,183.5,105.7,186.5,112.2,186.5z"></path>
</g>
</svg>
