<?xml version="1.0" encoding="UTF-8"?>
<svg xmlns="http://www.w3.org/2000/svg" xmlns:xlink="http://www.w3.org/1999/xlink" version="1.1" id="Ebene_1" x="0px" y="0px" viewBox="0 0 400 400" style="enable-background:new 0 0 400 400;" xml:space="preserve">
<style type="text/css">
	.st0{fill:#CDCDCD;}
</style>
<path class="st0" d="M387.9,228.2c-6.3-13.4-16.5-23-27.3-30.1c-19.8-12.9-46.4-19.9-68.2-25.7l-2.2-0.6  c-24.7-6.5-43.7-11.9-56.1-20c-5.6-3.7-8.4-7.1-9.7-10c-1.3-2.8-2.4-7.4-0.9-15.5c1.4-7.5,7.3-15.5,22.1-21.4  c10.1-4,23-6.4,37.7-6.4c6.9,0,14.2,0.5,21.8,1.6l36.1,6.6c1.5,0.3,2.9,0.4,4.4,0.4c11.5,0,21.8-8.3,23.9-20  C372,74,363.3,61.3,350,58.9l-36.5-6.7c-0.3-0.1-0.5-0.1-0.8-0.2c-1.2-0.2-2.4-0.4-3.6-0.5V24.8c0-12.5-10.2-23.9-22.6-24.8  c-0.6,0-1.2-0.1-1.7-0.1c-13.5,0-24.3,10.9-24.3,24.3v26.9c-11.6,1.6-22.8,4.3-32.9,8.4c-22.7,9-42.8,25.6-50.3,50.6h-0.8  c-60.8,0-112.6,38.9-131.8,93.1H26.4c-11.4,0-20.7,9.3-20.7,20.7s9.3,20.7,20.7,20.7h10.4c-0.1,1.7-0.1,3.4-0.1,5.2v10.4  c0,1.7,0,3.4,0.1,5.2H26.4c-11.4,0-20.7,9.3-20.7,20.7s9.3,20.7,20.7,20.7h18.3c19.1,54.3,71,93.1,131.8,93.1H192  c11.4,0,20.7-9.2,20.7-20.7c0-11.4-9.3-20.7-20.7-20.7h-15.5c-37.5,0-70-21-86.6-51.8h81.4c2.1,0,4-0.3,5.9-0.9  c2.3,5.4,6.6,10,12.4,12.5c20.5,9.1,51.1,17.1,69.6,20h0.2c0.3,0.1,0.7,0.1,1,0.2v26.6c0,13.5,10.9,24.3,24.3,24.3  c0.6,0,1.2,0,1.7-0.1c12.5-0.9,22.6-12.3,22.6-24.8V340c12-1.4,23.4-4.1,33.8-8.4c24.7-10.1,44.7-29.4,49.9-58.4  C395.8,257,394.4,241.8,387.9,228.2z M344.9,264.4c-1.7,9.1-7.5,16.7-20.4,22c-8.9,3.7-20.7,5.8-34.7,5.8c-7.2,0-14.9-0.6-23.2-1.8  c-15.1-2.4-41.3-9.4-57.2-16.4c-3.2-1.4-6.6-2.1-9.9-2.1c-3.9,0-7.6,0.9-11,2.7c-3.7-5.5-10-9.1-17.2-9.1h-93  c-0.1-1.7-0.1-3.4-0.1-5.2v-10.4c0-1.7,0.1-3.5,0.1-5.2h93c11.5,0,20.7-9.3,20.7-20.7s-9.2-20.7-20.7-20.7H89.9  c16.6-30.7,49.1-51.7,86.5-51.7c1,3.7,2.3,7.3,3.9,10.8c6.3,13.4,16.4,23.1,27.2,30.1c19.8,12.9,46.4,20,68.1,25.7l2.1,0.5  c24.7,6.5,43.8,11.9,56.3,20c5.6,3.7,8.4,7.1,9.9,10.1C345.2,251.7,346.3,256.4,344.9,264.4z"></path>
</svg>
