<?xml version="1.0" encoding="UTF-8"?>
<svg xmlns="http://www.w3.org/2000/svg" xmlns:xlink="http://www.w3.org/1999/xlink" version="1.1" id="Ebene_1" x="0px" y="0px" viewBox="0 0 400 400" style="enable-background:new 0 0 400 400;" xml:space="preserve">
<style type="text/css">
	.st0{fill:#CDCDCD;}
</style>
<g>
	<path class="st0" d="M91.387,44.944c-37.591,9.925-68.085,37.159-82.469,72.688h55.954C69.667,86.994,79.161,61.342,91.387,44.944z   "></path>
	<path class="st0" d="M165.082,117.632c-2.925-17.501-7.384-32.94-12.946-45.406c-5.034-11.316-10.644-19.514-16.062-24.693   c-5.37-5.082-9.829-6.617-13.329-6.617s-7.959,1.534-13.329,6.617c-5.418,5.178-11.028,13.377-16.062,24.693   c-5.514,12.514-10.021,27.953-12.946,45.406H165.082z"></path>
	<path class="st0" d="M61.372,163.661c0-10.548,0.527-20.809,1.534-30.686H3.884C1.343,142.804,0,153.065,0,163.661   s1.343,20.857,3.884,30.686h59.023C61.9,184.47,61.372,174.21,61.372,163.661z"></path>
	<path class="st0" d="M236.523,117.632c-14.336-35.529-44.878-62.763-82.421-72.688c12.227,16.398,21.72,42.05,26.515,72.688   H236.523z"></path>
	<path class="st0" d="M8.918,209.69c14.384,35.529,44.878,62.763,82.469,72.688c-12.227-16.398-21.72-42.05-26.515-72.688   L8.918,209.69L8.918,209.69z"></path>
	<path class="st0" d="M396.178,255.633l-24.971-30.492c-4.501-5.521-11.254-8.706-18.388-8.706h-20.767v-20.427   c0-14.991-12.188-27.179-27.179-27.179h-59.548c0.071-1.718,0.164-3.431,0.164-5.168c0-10.596-1.343-20.857-3.884-30.686h-59.023   c1.007,9.877,1.534,20.138,1.534,30.686c0,1.735-0.036,3.449-0.065,5.168h-15.348c0.03-1.718,0.069-3.429,0.069-5.168   c0-10.644-0.527-20.905-1.582-30.686H78.298c-1.007,9.781-1.582,20.042-1.582,30.686s0.527,20.905,1.582,30.686h49.995   c-0.034,0.553-0.084,1.101-0.084,1.661v13.682H80.407c2.925,17.453,7.384,32.892,12.946,45.358v0.048   c5.034,11.316,10.644,19.514,16.062,24.693c5.37,5.082,9.829,6.617,13.329,6.617c1.616,0,3.445-0.351,5.464-1.208v33.117v6.795   c0,18.771,15.203,33.974,33.974,33.974c11.127,0,20.979-5.351,27.179-13.59c6.2,8.239,16.053,13.59,27.179,13.59   c18.771,0,33.974-15.203,33.974-33.974c0-2.336-0.255-4.586-0.679-6.795h55.038h14.269c-0.425,2.208-0.68,4.459-0.68,6.795   c0,18.771,15.203,33.974,33.974,33.974s33.974-15.203,33.974-33.974c0-2.336-0.255-4.586-0.679-6.795h0.679   c7.517,0,13.59-6.073,13.59-13.59v-27.179v-6.795v-4.374C400,262.47,398.641,258.648,396.178,255.633z M162.183,338.699   c-7.505,0-13.59-6.084-13.59-13.59c0-7.505,6.084-13.59,13.59-13.59s13.59,6.084,13.59,13.59   C175.772,332.615,169.688,338.699,162.183,338.699z M216.541,338.699c-7.505,0-13.59-6.084-13.59-13.59   c0-7.505,6.084-13.59,13.59-13.59s13.59,6.084,13.59,13.59C230.13,332.615,224.046,338.699,216.541,338.699z M352.436,338.699   c-7.505,0-13.59-6.084-13.59-13.59c0-7.505,6.084-13.59,13.59-13.59c7.505,0,13.59,6.084,13.59,13.59   S359.942,338.699,352.436,338.699z M332.052,263.956v-27.179h20.724c1.019,0,1.996,0.467,2.633,1.232l21.234,25.948h-44.591   V263.956z"></path>
</g>
</svg>
